# xmcd CD database file
#
# Track frame offsets:
#	150
#	16650
#	40725
#	71325
#	90900
#	117750
#	150900
#	177900
#	219975
#	255750
#
# Disc length: 3601 seconds
#
# Revision: 0
# Processed by: cddbd v1.5.2PL0 Copyright (c) Steve Scherf et al.
# Submitted via: CDex 1.70beta2
#
DISCID=620e0f0a
DTITLE=Tadataka Unno - Pee Ka Boo!
DYEAR=2004
DGENRE=Jazz
TTITLE0=B.B.A
TTITLE1=We Will All Together
TTITLE2=Triste
TTITLE3=Virgo
TTITLE4=I got It Bad
TTITLE5=Wisper Not
TTITLE6=Pee Ka Boo !
TTITLE7=In The Wee Small Hours of The Morning
TTITLE8=Robbin's Nest
TTITLE9=Time After Time
EXTD=YEAR: 2004
EXTT0=
EXTT1=
EXTT2=
EXTT3=
EXTT4=
EXTT5=
EXTT6=
EXTT7=
EXTT8=
EXTT9=
PLAYORDER=
